<?xml version="1.0" encoding="UTF-8"?>
<svg version="1.1" xmlns="http://www.w3.org/2000/svg" width="1803" height="419">
<path d="M0 0 C2.02715957 0.01072829 4.05343339 0.00003855 6.08056641 -0.01269531 C13.78391322 0.00242411 21.01541446 0.52999259 28.52978516 2.26074219 C26.8195305 5.9250917 24.76980592 8.19530109 21.84228516 11.01074219 C17.95493764 14.77503698 14.50703626 18.60736241 11.29541016 22.95996094 C9.52978516 24.26074219 9.52978516 24.26074219 6.77978516 24.12792969 C3.86652289 23.35059288 1.05874168 22.42847272 -1.77197266 21.39331055 C-14.11881196 16.98836675 -27.46869175 16.04518886 -39.86083984 20.94042969 C-53.53523905 27.85951192 -60.80051197 40.34516854 -65.55737305 54.49450684 C-66.5311749 57.85589539 -67.42349015 61.22763892 -68.28271484 64.62011719 C-68.61400391 65.89530212 -68.94529297 67.17048706 -69.28662109 68.48431396 C-73.51335504 84.89359853 -77.19601721 101.43802924 -80.90008545 117.97125244 C-81.67433217 121.41992852 -82.45469573 124.86720902 -83.23513794 128.31448746 C-83.99017279 131.65106833 -84.74283904 134.98817947 -85.49462891 138.32549286 C-85.85144563 139.90927688 -86.20870002 141.49296236 -86.56640625 143.07654572 C-87.05871623 145.25886865 -87.54813381 147.44181867 -88.03662109 149.625 C-88.31449463 150.86243958 -88.59236816 152.09987915 -88.87866211 153.37481689 C-89.53714932 156.09629782 -89.53714932 156.09629782 -89.47021484 158.26074219 C-89.17888672 157.73754395 -88.88755859 157.2143457 -88.58740234 156.67529297 C-83.16737298 146.99210372 -77.89486663 137.57635219 -70.47021484 129.26074219 C-69.76380859 128.43574219 -69.05740234 127.61074219 -68.32958984 126.76074219 C-55.33443971 111.85721336 -37.59661948 97.08823574 -17.11645508 95.0234375 C2.91295792 93.93008972 2.91295792 93.93008972 10.52978516 100.26074219 C15.85124482 106.24738431 16.97886685 113.65546665 16.77587891 121.42871094 C15.30605032 138.34340504 8.4903064 150.44612162 -4.11865234 161.60449219 C-15.06892804 170.36471275 -27.58272221 175.61602623 -40.90771484 179.69824219 C-41.71144531 179.94533936 -42.51517578 180.19243652 -43.34326172 180.44702148 C-49.02226632 182.08587004 -54.5790524 182.85132077 -60.47021484 183.26074219 C-37.1552339 217.9084395 -37.1552339 217.9084395 -2.89599609 238.79980469 C8.14968705 239.67055927 17.66735818 233.02434964 25.84228516 226.32324219 C26.72529297 225.55109375 27.60830078 224.77894531 28.51806641 223.98339844 C30.52978516 222.26074219 30.52978516 222.26074219 31.52978516 222.26074219 C31.49625106 223.80331077 31.42636141 225.34510156 31.34228516 226.88574219 C31.30748047 227.74425781 31.27267578 228.60277344 31.23681641 229.48730469 C29.63142484 235.78469702 23.97819129 239.82564971 19.02978516 243.63574219 C18.42247559 244.10689453 17.81516602 244.57804688 17.18945312 245.06347656 C11.24051622 249.60333315 5.07875957 253.62539313 -1.47021484 257.26074219 C-2.13923828 257.64230469 -2.80826172 258.02386719 -3.49755859 258.41699219 C-11.15822239 262.03778733 -21.24110832 261.57646422 -29.16162109 259.11230469 C-41.60880533 253.41024264 -50.8937389 243.72730517 -59.24365234 233.08496094 C-61.22085338 230.57703752 -63.2636311 228.1446471 -65.34936523 225.72680664 C-74.87725165 214.66834969 -83.65304219 202.98334134 -92.07958984 191.06933594 C-92.76794922 190.17408203 -92.76794922 190.17408203 -93.47021484 189.26074219 C-93.80021484 189.26074219 -94.13021484 189.26074219 -94.47021484 189.26074219 C-94.63085922 190.0684053 -94.7915036 190.87606842 -94.95701599 191.70820618 C-96.47054417 199.31590466 -97.98591786 206.92323207 -99.50337124 214.53014851 C-100.28346103 218.44103904 -101.0628339 222.35206962 -101.84057617 226.26342773 C-102.59102413 230.03738226 -103.34334504 233.81095897 -104.09697151 237.58428001 C-104.38430723 239.02465681 -104.67096536 240.46516895 -104.95693779 241.90581703 C-105.35728096 243.92202915 -105.7600204 245.93774865 -106.16333008 247.95336914 C-106.39205307 249.10142532 -106.62077606 250.24948151 -106.85643005 251.43232727 C-107.47021484 254.26074219 -107.47021484 254.26074219 -108.47021484 257.26074219 C-119.03021484 257.92074219 -129.59021484 258.58074219 -140.47021484 259.26074219 C-139.34599782 250.26700597 -139.34599782 250.26700597 -138.60137939 247.31829834 C-138.4339196 246.64294289 -138.26645981 245.96758743 -138.09392548 245.27176666 C-137.91291542 244.55882195 -137.73190536 243.84587723 -137.54541016 243.11132812 C-137.14563075 241.4935941 -136.74655716 239.87568554 -136.3480835 238.25762939 C-136.13679558 237.40414162 -135.92550766 236.55065384 -135.70781708 235.6713028 C-131.47090129 218.47772513 -127.72704142 201.21694687 -124.32958984 183.83886719 C-124.01398354 182.22666542 -124.01398354 182.22666542 -123.69200134 180.58189392 C-122.18965482 172.89377345 -120.70338023 165.20258231 -119.22021484 157.51074219 C-117.71986863 149.73315826 -116.21340998 141.95683808 -114.69373322 134.18300629 C-114.10330666 131.14826937 -113.5227064 128.11177563 -112.94281006 125.07501221 C-104.88223787 83.43095512 -90.85820377 40.33934679 -53.96191406 15.36303711 C-37.36332677 4.61403776 -19.69174136 -0.12369782 0 0 Z M-67.97021484 143.01074219 C-69.33922951 144.78984066 -70.69663167 146.57685205 -72.04638672 148.37060547 C-73.54652608 150.36204561 -75.06230099 152.34093793 -76.57958984 154.31933594 C-86.84830689 165.9291556 -86.84830689 165.9291556 -92.47021484 179.26074219 C-68.76784245 180.26068602 -46.30137553 173.40357038 -28.47021484 157.26074219 C-19.07797254 148.14861939 -13.58319671 137.77249489 -13.15771484 124.63574219 C-13.24475764 120.15303831 -13.86157359 117.02877955 -16.47021484 113.26074219 C-34.48974599 101.24772142 -58.08828481 130.38135372 -67.97021484 143.01074219 Z " fill="#FE0000" transform="translate(1397.47021484375,60.7392578125)"/>
<path d="M0 0 C-2.79531059 10.34264918 -9.0174764 19.06061205 -16 27 C-16.65484375 27.75023438 -17.3096875 28.50046875 -17.984375 29.2734375 C-32.03778666 44.33066428 -52.27559074 53.972687 -72 59 C-73.20785156 59.3196875 -74.41570312 59.639375 -75.66015625 59.96875 C-90.47914927 63.22500889 -105.91255932 62.26924599 -121 62 C-121.12486282 63.27291397 -121.24972565 64.54582794 -121.37837219 65.85731506 C-121.95918146 71.0613523 -122.91434934 76.15193744 -123.94604492 81.28295898 C-124.14137817 82.26973129 -124.33671143 83.2565036 -124.53796387 84.2731781 C-125.18114039 87.51502842 -125.83028738 90.75564149 -126.48046875 93.99609375 C-126.93549976 96.27181322 -127.39052179 98.54753448 -127.84553528 100.82325745 C-128.80001604 105.59070818 -129.75808241 110.35742405 -130.71801758 115.1237793 C-131.93756467 121.18316995 -133.1429339 127.24528612 -134.34484386 133.30819607 C-135.2800157 138.01229182 -136.2255853 142.71425602 -137.17385292 147.41572762 C-137.62209003 149.64690893 -138.06660426 151.87884197 -138.50707054 154.11157036 C-145.54494384 189.72525627 -156.28715787 214.50101051 -187 236 C-169.84 236.33 -152.68 236.66 -135 237 C-135 240.58209229 -135.5220551 240.9138451 -137.921875 243.3984375 C-138.84226562 244.36523438 -138.84226562 244.36523438 -139.78125 245.3515625 C-140.4309375 246.01929688 -141.080625 246.68703125 -141.75 247.375 C-143.01724433 248.69375833 -144.2829075 250.01403815 -145.546875 251.3359375 C-146.16038818 251.96137451 -146.77390137 252.58681152 -147.40600586 253.23120117 C-149.18241539 255.07493827 -149.18241539 255.07493827 -150.67578125 257.94921875 C-154.84001031 261.62353851 -160.11339843 260.58250379 -165.4375 260.4375 C-166.77862452 260.41836485 -168.11977296 260.40085323 -169.4609375 260.38476562 C-174.64211443 260.3064503 -179.82058978 260.1536441 -185 260 C-186.7831662 259.94818573 -186.7831662 259.94818573 -188.60235596 259.89532471 C-207.73744589 259.33550954 -226.86922985 258.6915406 -246 258 C-246 251.62226759 -238.68177385 246.41674944 -234.46728516 242.06835938 C-228.54564059 236.40462796 -224.18940161 233.32110578 -215.875 233.5 C-213.57123689 233.59869929 -211.27929419 233.74038995 -208.98095703 233.92578125 C-203.37407791 234.13584919 -199.07155491 231.66698361 -194.83984375 228.26171875 C-185.95766931 219.44595309 -183.10871383 207.02641076 -180.18505859 195.25976562 C-179.92651281 194.22040611 -179.66796703 193.1810466 -179.40158653 192.11019135 C-176.26815996 179.288681 -173.72059286 166.35253365 -171.1640625 153.40625 C-170.63571655 150.74988956 -170.10559853 148.09388358 -169.57553101 145.43786621 C-168.33858043 139.23471083 -167.10749815 133.03040717 -165.87870347 126.82563162 C-164.47579779 119.74325693 -163.06607548 112.66224413 -161.65587544 105.58131886 C-158.76317894 91.05568072 -155.87873297 76.52841211 -153 62 C-157.90731478 62.1243323 -162.81452754 62.25202038 -167.72167969 62.38261414 C-169.38571903 62.42645063 -171.04978142 62.4694223 -172.71386719 62.51145935 C-206.98748636 62.39792229 -206.98748636 62.39792229 -235.875 78.6875 C-243.31914025 87.8346629 -244.16738512 99.06354324 -244.0625 110.375 C-244.05798828 111.30183594 -244.05347656 112.22867188 -244.04882812 113.18359375 C-244.03711574 115.45579709 -244.02071372 117.72786388 -244 120 C-271.68020305 134 -271.68020305 134 -275 134 C-273.80350815 108.87367109 -260.39090494 85.01898832 -242.37890625 68.00390625 C-230.15497568 56.90175881 -215.5185808 49.41120342 -199.8125 44.625 C-199.0299585 44.38628174 -198.24741699 44.14756348 -197.44116211 43.90161133 C-184.64014227 40.23868885 -171.98307231 39.68830685 -158.77734375 39.62109375 C-157.02453244 39.60484833 -155.27172964 39.58766154 -153.51893616 39.56959534 C-148.92178422 39.52422024 -144.32461882 39.48931244 -139.72735596 39.45739746 C-131.55642047 39.39912174 -123.38561106 39.32417381 -115.21484375 39.24609375 C-113.89783792 39.23366418 -113.89783792 39.23366418 -112.55422592 39.22098351 C-101.39734029 39.11211054 -90.2487778 38.93193926 -79.09765625 38.546875 C-78.01975327 38.51085678 -76.94185028 38.47483856 -75.83128357 38.43772888 C-51.96052178 37.95252365 -51.96052178 37.95252365 -31.8671875 26.7734375 C-28.52813464 22.37259377 -26.92342671 18.75069232 -25.8125 13.375 C-24.81563512 10.1603394 -23.82293761 8.50101124 -20.92675781 6.73779297 C-6.94019766 0 -6.94019766 0 0 0 Z " fill="#FE0000" transform="translate(1043,61)"/>
<path d="M0 0 C4.29897391 3.20315703 6.50099116 6.31547348 8.1875 11.375 C9.07338515 25.85413918 7.16044787 39.24352129 4.1875 53.375 C3.61223045 56.19439992 3.04239827 59.01482586 2.47558594 61.8359375 C2.1255532 63.56894893 1.76973857 65.30080596 1.40722656 67.03125 C1.24706055 67.80726563 1.08689453 68.58328125 0.921875 69.3828125 C0.77975586 70.05973145 0.63763672 70.73665039 0.49121094 71.43408203 C0.0844355 73.70622905 0.0844355 73.70622905 0.1875 77.375 C0.79335938 76.24964844 1.39921875 75.12429687 2.0234375 73.96484375 C17.33321053 45.79918268 36.7762885 16.26675266 66.1875 1.375 C66.88746094 1.0140625 67.58742188 0.653125 68.30859375 0.28125 C73.44680891 -1.88220901 78.74991582 -1.95602158 84.25 -2.0625 C85.00619629 -2.08497803 85.76239258 -2.10745605 86.54150391 -2.13061523 C93.29641761 -2.10194912 98.6847738 -0.1277262 103.5 4.6875 C109.35884195 14.01824828 109.65979724 22.69297015 108.44165039 33.49584961 C108.35346826 34.27808112 108.26528612 35.06031263 108.1744318 35.86624813 C107.05237996 45.21682727 105.186835 54.40649932 103.30859375 63.62890625 C102.93192456 65.50960467 102.55605077 67.39046255 102.18092346 69.27146912 C101.20305417 74.16652888 100.21678737 79.05985227 99.22790527 83.95269775 C97.64048952 91.81151458 96.06366518 99.6724465 94.49159431 107.53434563 C93.94518055 110.25863719 93.39359261 112.98184294 92.84141541 115.70497131 C92.50404557 117.38474045 92.16684294 119.06454319 91.82983398 120.74438477 C91.6014962 121.8596756 91.6014962 121.8596756 91.36854553 122.99749756 C88.96582404 133.81706953 88.96582404 133.81706953 91.1875 144.375 C92.78218098 145.96968098 94.41576282 145.66038976 96.625 145.75 C111.93654345 145.51075713 124.90203097 130.46178984 135.1875 120.375 C135.92097656 119.44171875 136.65445313 118.5084375 137.41015625 117.546875 C138.28994141 116.47179687 138.28994141 116.47179687 139.1875 115.375 C139.8475 115.375 140.5075 115.375 141.1875 115.375 C140.29114209 126.31056656 137.7983433 132.40682235 129.5625 139.59765625 C128.44106905 140.52775761 127.31609159 141.45360055 126.1875 142.375 C125.65769531 142.82214355 125.12789062 143.26928711 124.58203125 143.72998047 C110.14087345 155.85787874 95.42167414 164.38422535 76.13671875 163.72265625 C69.70782419 163.15671004 66.21722178 161.6183767 61.8125 156.75 C58.23119892 149.31191315 58.01494075 142.86321617 58.90380859 134.78149414 C59.0389364 133.53546339 59.0389364 133.53546339 59.17679405 132.26426029 C60.17353618 123.66446043 61.79788164 115.21880886 63.5472908 106.74493217 C64.11898681 103.97414491 64.6789929 101.20119671 65.23641968 98.42750549 C66.61963891 91.55595219 68.02102314 84.6881355 69.42352295 77.82049561 C70.61720236 71.97259993 71.80303516 66.12322186 72.97828293 60.27159309 C73.5267609 57.55697879 74.08657037 54.84486763 74.6468811 52.13267517 C78.33742683 36.8687694 78.33742683 36.8687694 74.1875 22.375 C64.9449721 21.27080419 57.8787213 23.97053383 50.54833984 29.64355469 C33.99727538 43.38828233 21.50085416 61.77829279 10.0625 79.8125 C9.63275879 80.48933838 9.20301758 81.16617676 8.76025391 81.86352539 C7.81996202 83.37058036 6.89789678 84.8890804 5.98901367 86.4152832 C4.56338986 88.75744847 3.08751299 91.02931206 1.56762695 93.30932617 C-6.76411059 106.21546058 -9.77406932 118.80730207 -12.375 133.8125 C-12.98579228 137.14038956 -13.60655845 140.46624672 -14.23143005 143.79151917 C-14.61253474 145.83854153 -14.98369961 147.88744732 -15.34339905 149.93833923 C-15.5079509 150.85772781 -15.67250275 151.77711639 -15.84204102 152.72436523 C-15.98207047 153.52865463 -16.12209991 154.33294403 -16.26637268 155.16160583 C-16.84504175 157.50688813 -17.5062338 159.33964755 -18.8125 161.375 C-21.7265625 161.984375 -21.7265625 161.984375 -25.4375 162.125 C-26.41891968 162.16838501 -26.41891968 162.16838501 -27.42016602 162.21264648 C-34.87886543 162.50342882 -42.35005914 162.46325489 -49.8125 162.375 C-48.40420882 153.71381536 -46.38260603 145.22749093 -44.30514336 136.70950317 C-39.46578307 116.79496459 -35.259914 96.77580854 -31.29760742 76.67041016 C-30.4140973 72.19044046 -29.51147511 67.71453534 -28.6046133 63.23924255 C-27.89275701 59.71143899 -27.19318521 56.18127955 -26.49696541 52.65036011 C-26.16915811 50.9975785 -25.83718081 49.34561714 -25.50054741 47.6946106 C-23.53045755 38.00356828 -21.65367031 28.30910852 -22.8125 18.375 C-25.20913985 15.97836015 -25.9484435 16.00177977 -29.25 15.875 C-44.44084173 16.24604067 -57.02801718 31.30228035 -66.86230469 41.49780273 C-67.4762207 42.12887939 -68.09013672 42.75995605 -68.72265625 43.41015625 C-69.54455444 44.26685913 -69.54455444 44.26685913 -70.38305664 45.14086914 C-71.8125 46.375 -71.8125 46.375 -73.8125 46.375 C-72.38747658 31.63337844 -64.79221474 24.45468348 -53.8125 15.375 C-39.64896427 4.07917257 -18.58158056 -8.41430063 0 0 Z " fill="#FE0000" transform="translate(453.8125,157.625)"/>
<path d="M0 0 C1.26310501 0.00356506 1.26310501 0.00356506 2.55172729 0.00720215 C22.49541196 0.09473121 42.12115605 2.07850664 61.125 8.4375 C58.95781792 17.6488313 56.2801725 26.66711316 53.4375 35.6875 C53.01726494 37.02984991 52.59734132 38.37229736 52.17773438 39.71484375 C51.16319775 42.95669642 50.14556759 46.19754193 49.125 49.4375 C45.495 49.4375 41.865 49.4375 38.125 49.4375 C38.23199219 48.60347656 38.33898437 47.76945312 38.44921875 46.91015625 C39.37165469 38.2511608 38.94441054 32.28688613 34.5625 24.75 C20.88694501 11.77575552 2.51338256 10.8734544 -15.27734375 11.09375 C-32.78785874 11.6914635 -47.0013221 20.04146123 -59.875 31.4375 C-60.48859375 31.96730469 -61.1021875 32.49710938 -61.734375 33.04296875 C-88.79205421 58.10353355 -103.59447853 101.7980426 -105.15625 137.796875 C-105.71411687 159.30487834 -101.63976464 178.97500602 -86.5625 195.1875 C-71.00704958 209.91147869 -51.65686721 210.12487476 -31.51318359 209.62109375 C-23.40177717 209.21176764 -15.6948909 207.54337991 -7.875 205.4375 C-7.12831055 205.24494629 -6.38162109 205.05239258 -5.61230469 204.85400391 C3.43935877 202.49757912 11.95522136 199.45288705 20.46484375 195.57421875 C23.125 194.4375 23.125 194.4375 25.125 194.4375 C24.98237588 196.0002962 24.83574489 197.56272696 24.6875 199.125 C24.56568359 200.43017578 24.56568359 200.43017578 24.44140625 201.76171875 C24.33699219 202.64472656 24.23257813 203.52773438 24.125 204.4375 C24.09212891 205.73494141 24.09212891 205.73494141 24.05859375 207.05859375 C23.125 209.4375 23.125 209.4375 19.96875 211.2109375 C18.53005649 211.76917035 17.08098485 212.30105982 15.625 212.8125 C14.83762451 213.10286133 14.05024902 213.39322266 13.23901367 213.69238281 C-2.30447101 219.25654093 -18.55896609 223.83494244 -34.875 226.4375 C-36.57269531 226.71207031 -36.57269531 226.71207031 -38.3046875 226.9921875 C-44.28477064 227.70714315 -50.31176151 227.66099795 -56.32641602 227.67773438 C-58.40878395 227.68736716 -60.49013118 227.71843383 -62.57226562 227.75 C-74.86022241 227.84860347 -86.98481773 226.46056404 -98.25 221.1875 C-98.91717041 220.88376465 -99.58434082 220.5800293 -100.27172852 220.26708984 C-105.76393515 217.67442066 -110.40920391 214.57313996 -114.875 210.4375 C-115.62007812 209.78265625 -116.36515625 209.1278125 -117.1328125 208.453125 C-127.61315066 198.71884481 -133.14005737 186.96528001 -136.875 173.4375 C-137.22691406 172.16326172 -137.22691406 172.16326172 -137.5859375 170.86328125 C-146.02500571 134.84435969 -135.35164386 95.53805 -116.875 64.5625 C-100.02978768 37.96996094 -74.80889842 16.31851369 -44.875 6.0625 C-44.2250708 5.83602783 -43.5751416 5.60955566 -42.90551758 5.3762207 C-28.87410722 0.8869117 -14.62136767 -0.10931052 0 0 Z " fill="#FE0000" transform="translate(219.875,95.5625)"/>
<path d="M0 0 C0.8559375 -0.02900391 1.711875 -0.05800781 2.59375 -0.08789062 C9.91058463 -0.15995036 15.57492361 1.65581827 21.51953125 5.953125 C30.14966283 14.95467997 31.74047642 23.6960454 31.5234375 35.84765625 C31.05357845 46.77304212 26.61827261 55.6208576 20.25 64.3125 C19.77691406 64.95832031 19.30382813 65.60414063 18.81640625 66.26953125 C3.57718336 85.39410842 -21.92670095 94.73635919 -45.2578125 98.9453125 C-49.42238892 99.38319861 -53.50447431 99.42159754 -57.6875 99.375 C-58.46673828 99.37048828 -59.24597656 99.36597656 -60.04882812 99.36132812 C-61.94925268 99.34966908 -63.84963706 99.33173877 -65.75 99.3125 C-65.33233888 121.18480307 -65.33233888 121.18480307 -55.75 140.3125 C-46.32738926 148.20494318 -36.53996061 148.16795316 -24.75 147.3125 C-19.84898556 146.47721417 -15.38902324 145.08500661 -10.75 143.3125 C-10.13092773 143.07644043 -9.51185547 142.84038086 -8.87402344 142.59716797 C3.50479845 137.77558265 15.40345144 131.37239795 26.12109375 123.5078125 C29.25 121.3125 29.25 121.3125 31.25 121.3125 C31.10851011 122.9170556 30.96164314 124.52113767 30.8125 126.125 C30.73128906 127.01832031 30.65007812 127.91164063 30.56640625 128.83203125 C29.93990436 133.74349667 29.93990436 133.74349667 27.69384766 135.59594727 C27.02401855 136.01932373 26.35418945 136.4427002 25.6640625 136.87890625 C24.90810791 137.35948486 24.15215332 137.84006348 23.37329102 138.33520508 C22.54885498 138.8433374 21.72441895 139.35146973 20.875 139.875 C20.02156006 140.40440186 19.16812012 140.93380371 18.28881836 141.47924805 C-2.61760828 154.29175018 -24.68886044 165.71274909 -49.75 165.625 C-50.67039062 165.64111328 -51.59078125 165.65722656 -52.5390625 165.67382812 C-64.90078433 165.68253356 -75.3977905 161.56622563 -84.26953125 152.83203125 C-89.71222228 146.57699827 -93.20110333 140.18409267 -95.75 132.3125 C-95.99492188 131.56097656 -96.23984375 130.80945313 -96.4921875 130.03515625 C-102.96149175 104.8225938 -94.13139162 77.12912898 -81.4375 55.4375 C-77.29991917 48.66150104 -72.35945032 42.66675036 -67.05810547 36.77636719 C-65.84107674 35.41442164 -64.65545986 34.02458484 -63.47265625 32.6328125 C-47.14955015 13.68266039 -25.43073899 0.28214577 0 0 Z M-43.75 35.3125 C-55.20400596 50.22358066 -65.12275278 70.30210813 -64.75 89.3125 C-58.90998338 89.49067 -53.74576894 88.94194548 -48.0625 87.625 C-47.27939453 87.44565918 -46.49628906 87.26631836 -45.68945312 87.08154297 C-28.86110858 83.06709528 -11.99304124 75.4961197 -2.3125 60.4375 C2.97313747 50.71971327 5.0181189 39.82414216 2.74609375 28.88671875 C1.24321004 24.32654017 -1.12212927 21.38223677 -4.75 18.3125 C-19.6620227 10.85648865 -34.97648605 24.64209397 -43.75 35.3125 Z " fill="#FE0000" transform="translate(1546.75,155.6875)"/>
<path d="M0 0 C0.8559375 -0.02900391 1.711875 -0.05800781 2.59375 -0.08789062 C9.91058463 -0.15995036 15.57492361 1.65581827 21.51953125 5.953125 C30.14966283 14.95467997 31.74047642 23.6960454 31.5234375 35.84765625 C31.05357845 46.77304212 26.61827261 55.6208576 20.25 64.3125 C19.77691406 64.95832031 19.30382812 65.60414063 18.81640625 66.26953125 C3.57718336 85.39410842 -21.92670095 94.73635919 -45.2578125 98.9453125 C-49.42238892 99.38319861 -53.50447431 99.42159754 -57.6875 99.375 C-58.46673828 99.37048828 -59.24597656 99.36597656 -60.04882812 99.36132812 C-61.94925268 99.34966908 -63.84963706 99.33173877 -65.75 99.3125 C-65.33233888 121.18480307 -65.33233888 121.18480307 -55.75 140.3125 C-46.32738926 148.20494318 -36.53996061 148.16795316 -24.75 147.3125 C-19.84898556 146.47721417 -15.38902324 145.08500661 -10.75 143.3125 C-10.13092773 143.07644043 -9.51185547 142.84038086 -8.87402344 142.59716797 C3.50479845 137.77558265 15.40345144 131.37239795 26.12109375 123.5078125 C29.25 121.3125 29.25 121.3125 31.25 121.3125 C31.10851011 122.9170556 30.96164314 124.52113767 30.8125 126.125 C30.73128906 127.01832031 30.65007812 127.91164063 30.56640625 128.83203125 C29.93990436 133.74349667 29.93990436 133.74349667 27.69384766 135.59594727 C27.02401855 136.01932373 26.35418945 136.4427002 25.6640625 136.87890625 C24.90810791 137.35948486 24.15215332 137.84006348 23.37329102 138.33520508 C22.54885498 138.8433374 21.72441895 139.35146973 20.875 139.875 C20.02156006 140.40440186 19.16812012 140.93380371 18.28881836 141.47924805 C-2.61760828 154.29175018 -24.68886044 165.71274909 -49.75 165.625 C-50.67039062 165.64111328 -51.59078125 165.65722656 -52.5390625 165.67382812 C-64.90078433 165.68253356 -75.3977905 161.56622563 -84.26953125 152.83203125 C-89.71222228 146.57699827 -93.20110333 140.18409267 -95.75 132.3125 C-95.99492188 131.56097656 -96.23984375 130.80945313 -96.4921875 130.03515625 C-102.96149175 104.8225938 -94.13139162 77.12912898 -81.4375 55.4375 C-77.29991917 48.66150104 -72.35945032 42.66675036 -67.05810547 36.77636719 C-65.84107674 35.41442164 -64.65545986 34.02458484 -63.47265625 32.6328125 C-47.14955015 13.68266039 -25.43073899 0.28214577 0 0 Z M-43.75 35.3125 C-55.20400596 50.22358066 -65.12275278 70.30210813 -64.75 89.3125 C-58.90998338 89.49067 -53.74576894 88.94194548 -48.0625 87.625 C-47.27939453 87.44565918 -46.49628906 87.26631836 -45.68945312 87.08154297 C-28.86110858 83.06709528 -11.99304124 75.4961197 -2.3125 60.4375 C2.97313747 50.71971327 5.0181189 39.82414216 2.74609375 28.88671875 C1.24321004 24.32654017 -1.12212927 21.38223677 -4.75 18.3125 C-19.6620227 10.85648865 -34.97648605 24.64209397 -43.75 35.3125 Z " fill="#FE0000" transform="translate(704.75,155.6875)"/>
<path d="M0 0 C-0.74621693 4.25067273 -1.49774035 8.50039287 -2.25 12.75 C-2.45496094 13.91789062 -2.65992188 15.08578125 -2.87109375 16.2890625 C-4.75363705 26.89976109 -6.88480636 37.42403181 -9 48 C8.82 48.33 26.64 48.66 45 49 C39.02491349 60.95017301 39.02491349 60.95017301 33 64 C25.42020551 65.46037193 17.46150301 64.05747399 9.875 63.1875 C7.75310447 62.9874587 5.63069966 62.7927437 3.5078125 62.60351562 C-1.66938292 62.13039548 -6.8343169 61.58514775 -12 61 C-12.09429794 61.68506119 -12.18859589 62.37012238 -12.28575134 63.07594299 C-13.88444297 74.07886447 -16.11678453 84.94448733 -18.31640625 95.83984375 C-18.73741933 97.93675666 -19.15814492 100.0337273 -19.57859802 102.13075256 C-20.67880332 107.61477305 -21.78231229 113.09812305 -22.88671875 118.58129883 C-24.65837749 127.38006785 -26.42505206 136.17983871 -28.19154167 144.97964668 C-28.80701871 148.04311826 -29.42397102 151.10628984 -30.04115295 154.16941833 C-30.41882483 156.04775356 -30.79646624 157.9260949 -31.17407227 159.80444336 C-31.43046227 161.07393074 -31.43046227 161.07393074 -31.69203186 162.36906433 C-33.52845047 171.42479239 -33.52845047 171.42479239 -34.1875 180.625 C-34.20167969 181.54539062 -34.21585938 182.46578125 -34.23046875 183.4140625 C-33.98884259 186.12518996 -33.46779434 187.72363123 -32 190 C-27.1085894 192.4457053 -20.91674856 191.50144767 -15.8046875 190.1640625 C-4.4199979 186.07654744 4.85524204 179.19623647 14.0390625 171.46875 C16 170 16 170 18 170 C17.88465396 171.56324232 17.75724874 173.12559683 17.625 174.6875 C17.55539062 175.55761719 17.48578125 176.42773438 17.4140625 177.32421875 C16.06959177 186.01254372 9.9937686 190.26201527 3.25634766 195.30517578 C-12.44550766 206.65959823 -28.39882056 213.08042653 -48 211 C-53.68350651 209.54702271 -57.59471256 207.1090906 -61 202.3125 C-66.47889615 191.99358958 -65.57399874 179.94542431 -63.77587891 168.77563477 C-63.64256983 167.92052339 -63.50926075 167.06541201 -63.371912 166.18438816 C-61.73128829 155.93049537 -59.66460086 145.76208005 -57.5859375 135.58984375 C-57.16625033 133.51819031 -56.74695678 131.44645709 -56.32803345 129.37464905 C-55.45874295 125.08075932 -54.58619999 120.78754936 -53.7109375 116.49487305 C-52.5886501 110.99034991 -51.47255724 105.48459362 -50.35857201 99.97838497 C-49.49719257 95.72224698 -48.63373469 91.46653301 -47.76951981 87.21096992 C-47.35687432 85.17882657 -46.94461729 83.14660429 -46.53275681 81.11430168 C-45.96047868 78.29316546 -45.38567038 75.47255727 -44.81005859 72.65209961 C-44.64070297 71.81533691 -44.47134735 70.97857422 -44.29685974 70.11645508 C-43.66092862 67.01132918 -43.00336658 64.01009973 -42 61 C-52.89 61 -63.78 61 -75 61 C-74.01 59.35 -73.02 57.7 -72 56 C-71.62536621 55.33863037 -71.25073242 54.67726074 -70.86474609 53.99584961 C-68.62934929 50.72262206 -67.05111709 49.20084033 -63.07910156 48.44189453 C-59.56949288 48.31052701 -56.13260392 48.38958995 -52.625 48.5625 C-51.41199219 48.59408203 -50.19898438 48.62566406 -48.94921875 48.65820312 C-45.96365816 48.74048235 -42.9830839 48.85539067 -40 49 C-39.86424561 48.26064209 -39.72849121 47.52128418 -39.58862305 46.75952148 C-34.59776831 19.60868035 -34.59776831 19.60868035 -32 7 C-26.00986423 4.7814312 -19.97244961 3.2142124 -13.75 1.8125 C-12.96963379 1.63364258 -12.18926758 1.45478516 -11.38525391 1.27050781 C-10.63421387 1.10518555 -9.88317383 0.93986328 -9.109375 0.76953125 C-8.43874023 0.62104736 -7.76810547 0.47256348 -7.07714844 0.31958008 C-4.694171 -0.04705338 -2.40731619 -0.05161529 0 0 Z " fill="#FE0000" transform="translate(1690,110)"/>
<path d="M0 0 C-2.16304833 9.32890117 -4.38076619 18.64299291 -6.6875 27.9375 C-6.90172607 28.80729492 -7.11595215 29.67708984 -7.33666992 30.57324219 C-7.53881104 31.3830957 -7.74095215 32.19294922 -7.94921875 33.02734375 C-8.21738403 34.10616821 -8.21738403 34.10616821 -8.4909668 35.20678711 C-9 37 -9 37 -10 39 C-13.3 39 -16.6 39 -20 39 C-19.835 37.700625 -19.67 36.40125 -19.5 35.0625 C-18.62251748 26.70677092 -18.00477818 20.19899615 -23 13 C-28.234449 7.62407941 -34.62660618 6.75595814 -41.8125 6.61914062 C-56.78415778 6.65513019 -66.83237212 10.41560093 -77.96484375 20.83984375 C-98.29339745 42.64348525 -103.94721448 74.22133232 -104 103 C-103.61068783 113.39591839 -101.60495737 122.7606507 -96.375 131.8125 C-89.09538674 138.51740695 -81.90582478 139.68019131 -72.31103516 139.52099609 C-50.72063562 138.59695906 -29.9970964 127.27614332 -12.671875 115.03125 C-11 114 -11 114 -9 114 C-8.49271402 118.62525457 -8.60218937 122.92780848 -11 127 C-15.9417446 131.60559025 -22.26973185 134.53799887 -28.23974609 137.58447266 C-30.85486009 138.92556862 -33.42322043 140.32768415 -35.98828125 141.76171875 C-45.68127788 147.12577553 -55.45363639 151.60048066 -66 155 C-67.02609375 155.33902344 -68.0521875 155.67804688 -69.109375 156.02734375 C-76.10046369 157.99245547 -82.96966155 158.29917478 -90.1875 158.375 C-91.10225098 158.38901855 -92.01700195 158.40303711 -92.95947266 158.41748047 C-105.04441083 158.33251335 -114.98852367 154.2324234 -124.0390625 146.1875 C-135.30184275 134.27971472 -138.50712088 118.73508835 -138.42407227 102.87280273 C-137.67069987 75.86554378 -126.42125972 51.26120655 -109 31 C-108.16339844 30.01128906 -107.32679687 29.02257812 -106.46484375 28.00390625 C-93.84644063 13.58573089 -78.04026996 2.49200026 -60 -4 C-59.05769531 -4.3403125 -58.11539062 -4.680625 -57.14453125 -5.03125 C-38.93453077 -10.33942828 -16.78641524 -8.77014808 0 0 Z " fill="#FE0000" transform="translate(1234,163)"/>
<path d="M0 0 C-0.49816675 2.27124708 -0.99834129 4.54202258 -1.5 6.8125 C-1.75142761 7.95146225 -1.75142761 7.95146225 -2.00793457 9.11343384 C-3.20539155 14.50588639 -4.43660242 19.88932616 -5.6953125 25.26782227 C-10.69472043 46.68259312 -15.19049698 68.1774181 -19.43945312 89.75292969 C-20.33544584 94.3008816 -21.24429572 98.84616812 -22.15607452 103.39097786 C-22.86890862 106.9535453 -23.57387257 110.51763633 -24.27659607 114.08221054 C-24.6087824 115.76113359 -24.94364264 117.43953017 -25.28138733 119.1173439 C-28.35094573 133.01408491 -28.35094573 133.01408491 -27 147 C-15.00526118 148.02616587 -7.69007655 143.85280047 1.3515625 136.30859375 C8.69599436 129.90658899 15.79471869 123.54696375 22 116 C22.33 116 22.66 116 23 116 C22.88416889 117.54238266 22.75683428 119.08390272 22.625 120.625 C22.52058594 121.91277344 22.52058594 121.91277344 22.4140625 123.2265625 C21.36567781 130.24876186 18.77627332 133.8795402 13.8125 138.6875 C13.19318604 139.29400391 12.57387207 139.90050781 11.93579102 140.52539062 C1.85115383 150.18313134 -8.9184669 157.94697174 -22 163 C-22.928125 163.37253906 -23.85625 163.74507812 -24.8125 164.12890625 C-28.91220367 165.24929095 -32.70657817 165.36797772 -36.9375 165.375 C-37.71029297 165.39949219 -38.48308594 165.42398438 -39.27929688 165.44921875 C-45.01161007 165.47829219 -48.27703264 164.26052569 -53 161 C-57.76723341 156.10392245 -59.2899521 150.80679814 -59.375 144.0625 C-59.23510288 137.83368681 -58.43533849 131.92288982 -57.328125 125.796875 C-57.15254059 124.80677933 -56.97695618 123.81668365 -56.79605103 122.79658508 C-54.25778145 108.64630349 -51.43617999 94.54682293 -48.63085938 80.44750977 C-45.15315254 63.13426005 -45.15315254 63.13426005 -42.5390625 45.67578125 C-42.44740814 44.98405319 -42.35575378 44.29232513 -42.26132202 43.57963562 C-41.76822839 38.96025437 -42.39888536 35.34621994 -44 31 C-46.60390449 28.39609551 -47.74870067 28.70177677 -51.375 28.6875 C-56.98408355 28.7617478 -61.94168775 29.76653681 -67.30859375 31.34375 C-70 32 -70 32 -75 32 C-74.34 28.7 -73.68 25.4 -73 22 C-65.74521012 19.6696945 -58.49015372 17.34022117 -51.23486328 15.01147461 C-48.7735292 14.22133134 -46.31226449 13.43097195 -43.85107422 12.64038086 C-36.91187815 10.41143552 -29.97112479 8.18746832 -23.02832031 5.9697876 C-20.30096519 5.09638092 -17.57596277 4.21606453 -14.8515625 3.33349609 C-13.41154484 2.87180041 -11.9714487 2.41034939 -10.53125 1.94921875 C-9.34080078 1.56467529 -8.15035156 1.18013184 -6.92382812 0.78393555 C-4 0 -4 0 0 0 Z " fill="#FE0000" transform="translate(1061,156)"/>
<path d="M0 0 C-0.49816675 2.27124708 -0.99834129 4.54202258 -1.5 6.8125 C-1.75142761 7.95146225 -1.75142761 7.95146225 -2.00793457 9.11343384 C-3.20539155 14.50588639 -4.43660242 19.88932616 -5.6953125 25.26782227 C-10.69472043 46.68259312 -15.19049698 68.1774181 -19.43945312 89.75292969 C-20.33544584 94.3008816 -21.24429572 98.84616812 -22.15607452 103.39097786 C-22.86890862 106.9535453 -23.57387257 110.51763633 -24.27659607 114.08221054 C-24.6087824 115.76113359 -24.94364264 117.43953017 -25.28138733 119.1173439 C-28.35094573 133.01408491 -28.35094573 133.01408491 -27 147 C-15.00526118 148.02616587 -7.69007655 143.85280047 1.3515625 136.30859375 C8.69599436 129.90658899 15.79471869 123.54696375 22 116 C22.33 116 22.66 116 23 116 C22.88416889 117.54238266 22.75683428 119.08390272 22.625 120.625 C22.52058594 121.91277344 22.52058594 121.91277344 22.4140625 123.2265625 C21.36567781 130.24876186 18.77627332 133.8795402 13.8125 138.6875 C13.19318604 139.29400391 12.57387207 139.90050781 11.93579102 140.52539062 C1.85115383 150.18313134 -8.9184669 157.94697174 -22 163 C-22.928125 163.37253906 -23.85625 163.74507812 -24.8125 164.12890625 C-28.91220367 165.24929095 -32.70657817 165.36797772 -36.9375 165.375 C-37.71029297 165.39949219 -38.48308594 165.42398438 -39.27929688 165.44921875 C-45.01161007 165.47829219 -48.27703264 164.26052569 -53 161 C-57.76723341 156.10392245 -59.2899521 150.80679814 -59.375 144.0625 C-59.23510288 137.83368681 -58.43533849 131.92288982 -57.328125 125.796875 C-57.15254059 124.80677933 -56.97695618 123.81668365 -56.79605103 122.79658508 C-54.25778145 108.64630349 -51.43617999 94.54682293 -48.63085938 80.44750977 C-45.15315254 63.13426005 -45.15315254 63.13426005 -42.5390625 45.67578125 C-42.44740814 44.98405319 -42.35575378 44.29232513 -42.26132202 43.57963562 C-41.76822839 38.96025437 -42.39888536 35.34621994 -44 31 C-46.60390449 28.39609551 -47.74870067 28.70177677 -51.375 28.6875 C-56.98408355 28.7617478 -61.94168775 29.76653681 -67.30859375 31.34375 C-70 32 -70 32 -75 32 C-74.34 28.7 -73.68 25.4 -73 22 C-65.74521012 19.6696945 -58.49015372 17.34022117 -51.23486328 15.01147461 C-48.7735292 14.22133134 -46.31226449 13.43097195 -43.85107422 12.64038086 C-36.91187815 10.41143552 -29.97112479 8.18746832 -23.02832031 5.9697876 C-20.30096519 5.09638092 -17.57596277 4.21606453 -14.8515625 3.33349609 C-13.41154484 2.87180041 -11.9714487 2.41034939 -10.53125 1.94921875 C-9.34080078 1.56467529 -8.15035156 1.18013184 -6.92382812 0.78393555 C-4 0 -4 0 0 0 Z " fill="#FE0000" transform="translate(359,156)"/>
<path d="M0 0 C-3.95748245 14.21219129 -8.93197622 25.50853234 -22.03125 33.0234375 C-45.79250914 46 -45.79250914 46 -52 46 C-51.0850074 42.95002468 -50.08698383 39.9902629 -49 37 C-48.67902344 36.03707031 -48.35804687 35.07414062 -48.02734375 34.08203125 C-44.17361405 24.50346837 -37.75261187 21.03959115 -29.14453125 16.23535156 C-25.67440665 14.23639545 -22.3754187 11.99676967 -19.0625 9.75 C-18.44157471 9.33500244 -17.82064941 8.92000488 -17.1809082 8.49243164 C-14.4875685 6.69192772 -11.81626482 4.87049837 -9.16796875 3.00390625 C-7.97107422 2.16666016 -7.97107422 2.16666016 -6.75 1.3125 C-6.08484375 0.83425781 -5.4196875 0.35601562 -4.734375 -0.13671875 C-3 -1 -3 -1 0 0 Z " fill="#FE0000" transform="translate(1082,83)"/>
<path d="M0 0 C-3.95748245 14.21219129 -8.93197622 25.50853234 -22.03125 33.0234375 C-45.79250914 46 -45.79250914 46 -52 46 C-51.0850074 42.95002468 -50.08698383 39.9902629 -49 37 C-48.67902344 36.03707031 -48.35804688 35.07414062 -48.02734375 34.08203125 C-44.17361405 24.50346837 -37.75261187 21.03959115 -29.14453125 16.23535156 C-25.67440665 14.23639545 -22.3754187 11.99676967 -19.0625 9.75 C-18.44157471 9.33500244 -17.82064941 8.92000488 -17.1809082 8.49243164 C-14.4875685 6.69192772 -11.81626482 4.87049837 -9.16796875 3.00390625 C-7.97107422 2.16666016 -7.97107422 2.16666016 -6.75 1.3125 C-6.08484375 0.83425781 -5.4196875 0.35601562 -4.734375 -0.13671875 C-3 -1 -3 -1 0 0 Z " fill="#FE0000" transform="translate(380,83)"/>
</svg>
